<svg version="1.2" xmlns="http://www.w3.org/2000/svg" viewBox="0 0 2000 2000" width="2000" height="2000">
	<defs>
		<linearGradient id="g1" x2="1" gradientUnits="userSpaceOnUse" gradientTransform="matrix(2000,0,0,1999.659,0,.092)">
			<stop offset="0" stop-color="#ffffff"/>
			<stop offset="1" stop-color="#ffffff"/>
		</linearGradient>
	</defs>
	<style>
		.s0 { fill: url(#g1) } 
		.s1 { fill: #003251 } 
		.s2 { fill: #a4061d } 
		.s3 { fill: #f9d066 } 
		.s4 { fill: #f1f1f0 } 
	</style>
	<g id="Layer 1">
		<g id="Background">
			<path id="Path 1" fill-rule="evenodd" class="s0" d="m886.36 3.72c-15.12 1.83-41.56 5.71-58.75 8.62-17.19 2.9-47.57 9.2-67.51 14-19.94 4.79-48.07 12.14-62.51 16.33-14.44 4.19-42.57 13.85-62.51 21.47-19.94 7.61-52 21.44-71.26 30.72-19.25 9.28-46.25 23.36-60.01 31.3-13.75 7.93-37.94 22.85-53.75 33.15-15.82 10.3-41.13 28.06-56.26 39.46-15.13 11.41-40.44 32.34-56.26 46.52-15.81 14.17-41.34 38.73-56.72 54.57-15.38 15.83-38.74 41.73-51.9 57.55-13.17 15.81-33.58 42.25-45.36 58.75-11.77 16.51-29.76 43.51-39.97 60.01-10.2 16.5-27.44 47.44-38.31 68.76-10.86 21.32-24.24 49.44-29.74 62.51-5.49 13.06-14.16 35-19.28 48.75-5.11 13.76-14.13 41.88-20.05 62.51-5.92 20.63-13.6 51.01-17.07 67.51-3.47 16.5-9.2 49.98-12.72 74.39-6.01 41.56-6.42 50.5-6.42 140.64 0 90.26 0.4 98.95 6.38 139.39 3.51 23.72 8.62 54.38 11.37 68.14 2.74 13.75 8.39 37.38 12.55 52.5 4.16 15.13 11.94 41.01 17.29 57.51 5.35 16.5 15.5 44.07 22.56 61.26 7.06 17.19 23.36 52.07 36.24 77.51 12.87 25.44 33.11 61.44 44.96 80.01 11.86 18.56 29.15 43.88 38.43 56.26 9.28 12.37 28.2 36 42.03 52.5 13.84 16.5 37.38 42.38 52.32 57.51 14.94 15.13 36.16 35.56 47.16 45.42 11 9.85 27.32 23.97 36.26 31.37 8.94 7.4 23 18.56 31.25 24.8 8.25 6.24 29.63 20.96 47.51 32.7 17.87 11.75 43.75 27.82 57.5 35.72 13.76 7.9 33.45 18.59 43.76 23.75 10.31 5.17 33.38 15.64 51.26 23.27 17.87 7.62 49.38 19.61 70.01 26.64 20.62 7.02 55.5 17.29 77.51 22.81 22 5.52 59.69 13.36 83.76 17.42 24.06 4.06 55.57 8.61 70.01 10.12 16.37 1.71 60.58 2.32 117.51 1.61 76.06-0.94 96.68-1.99 123.77-6.28 17.87-2.84 47.13-8.16 65.01-11.83 17.87-3.66 44.6-9.94 59.38-13.95 14.78-4.01 39.53-11.35 55.01-16.31 15.47-4.96 41.63-14.38 58.13-20.93 16.5-6.56 46.88-20.36 67.51-30.68 20.62-10.32 47.63-24.71 60-31.98 12.38-7.28 34.88-21.36 50.01-31.3 15.13-9.94 37.78-25.79 50.33-35.22 12.56-9.43 33.38-26.59 46.26-38.14 12.88-11.55 39.18-36.88 58.43-56.3 19.25-19.42 43.48-45.42 53.84-57.77 10.35-12.35 24.46-29.76 31.34-38.7 6.88-8.94 19.33-25.82 27.68-37.51 8.34-11.69 25.65-38.69 38.47-60.01 12.81-21.31 31.98-56.75 42.58-78.76 10.61-22 23.49-50.69 28.63-63.75 5.14-13.07 14.18-38.38 20.09-56.26 5.91-17.88 14.12-46.01 18.25-62.51 4.12-16.5 9.83-41.82 12.68-56.26 2.85-14.44 7.02-38.06 9.27-52.5 3.09-19.84 4.37-51 5.26-127.52 0.98-84.21 0.47-107.16-2.99-136.27-2.29-19.25-6.95-49.63-10.36-67.51-3.41-17.87-10.08-47.41-14.83-65.63-4.74-18.22-12.11-44.1-16.36-57.51-4.25-13.4-13.45-39-20.44-56.88-6.98-17.88-22.2-51.63-33.81-75.01-11.6-23.38-29.59-56.57-39.96-73.76-10.38-17.19-24.58-39.69-31.57-50-6.98-10.32-13.33-19.32-14.1-20.01-0.77-0.68-4.14-5.19-7.49-10-3.35-4.81-7.95-11-10.21-13.75-2.27-2.75-15.38-18.5-29.15-35-13.76-16.51-37.24-42.41-52.17-57.56-14.93-15.15-37.33-36.53-49.77-47.51-12.45-10.97-28.09-24.45-34.78-29.95-6.68-5.5-14.5-11.63-17.38-13.61-2.88-1.98-5.8-4.28-6.48-5.12-0.69-0.83-10.82-8.32-22.51-16.66-11.68-8.33-27.44-19.08-35-23.9-7.56-4.81-20.22-12.85-28.13-17.86-7.91-5.01-15.22-9.14-16.25-9.18-1.03-0.03-3.56-1.63-5.63-3.54-2.06-1.91-24-13.61-48.75-25.99-24.76-12.38-60.76-28.74-80.01-36.35-19.26-7.62-54.7-19.55-78.76-26.52-24.07-6.97-62.89-16.52-86.26-21.24-23.38-4.71-60.79-10.87-83.14-13.69-34.32-4.32-53.74-5.08-125.02-4.85-53.09 0.17-94.58 1.5-111.89 3.59z"/>
			<path id="Path 2" fill-rule="evenodd" class="s1" d="m1080.37 366.56l-0.28 267.13 343.84 341.05 311.29 0.25c11.63-21.32 18.1-29.61 21.88-32.17 3.78-2.57 10.82-6.71 15.63-9.21 5.84-3.04 14.15-4.54 25-4.53 10.82 0.01 19.68 1.62 26.5 4.83 5.63 2.65 14.35 8.48 19.37 12.95 5.03 4.47 11.55 12.9 14.49 18.75 2.95 5.84 5.9 17.38 6.57 25.63 0.97 12.12 0.07 17.59-4.73 28.49-3.27 7.42-10.44 17.62-15.94 22.65-5.5 5.04-15.63 11.26-22.51 13.82-9.22 3.43-16.43 4.3-27.5 3.32-8.25-0.72-19.5-3.58-25-6.35-5.5-2.77-13.66-9.12-18.13-14.11-4.47-4.98-9.81-12.44-11.88-16.57l-3.75-7.5-326.29-0.14c-252.87-251.8-327.42-324.9-328.79-324.9-1.61 0-2.54 25.28-2.61 70.63l-0.1 70.64c171.65 170.22 224.58 223.95 228.36 229.21 3.79 5.26 8.74 15.47 11.01 22.69 2.68 8.49 3.67 17.55 2.82 25.63-0.73 6.88-3.77 18.13-6.77 25.01-4.47 10.28-25.67 32.76-119.7 126.95l-114.26 114.45-1.25 512.44c10.66 0.02 34.28-3.35 59.38-7.48 25.1-4.14 46.2-7.52 46.88-7.52 0.69 0 1.27-102.11 1.3-226.9l0.05-226.91 281.19-278.77 191.27-0.01c7.42-14.54 13.32-22.35 17.91-26.74 4.59-4.39 13.41-10.27 19.6-13.07 7.18-3.25 16.68-5.12 26.25-5.17 11.56-0.07 18.12 1.5 28.56 6.82 7.46 3.8 16.35 10.28 19.77 14.4 3.41 4.13 8.25 12.01 10.76 17.51 2.92 6.4 4.56 15.85 4.56 26.25 0 10.5-1.63 19.79-4.61 26.25-2.53 5.5-8.45 13.94-13.15 18.76-4.69 4.81-13 10.92-18.46 13.57-5.46 2.65-15.55 5.33-22.43 5.95-7.7 0.7-17.3-0.42-25-2.92-6.88-2.23-16.88-7.73-22.24-12.21-5.35-4.48-12.38-12.93-15.62-18.77l-5.9-10.63h-179.06l-250.99 251.28v428.81c14.53-2.32 38.44-9.48 62.51-17.41 24.06-7.93 60.07-21.9 80.01-31.04 19.94-9.14 49.19-23.72 65.01-32.4 15.81-8.68 33.53-18.8 39.38-22.48l10.62-6.68v-72.51c-14.53-6.2-22.41-10.7-26.88-14-4.47-3.3-11.14-11.35-14.83-17.88-4.48-7.94-7.08-16.85-7.84-26.88-0.89-11.76 0.06-17.71 4.36-27.5 3.02-6.88 8.03-15.88 11.13-20.01 3.1-4.12 11.75-10.61 19.23-14.4 10.42-5.3 17.07-6.9 28.58-6.86 10.39 0.04 18.85 1.85 27.51 5.89 6.87 3.21 16.72 10.51 21.87 16.23 6.13 6.79 10.76 15.39 13.36 24.77 2.61 9.39 3.38 17.85 2.23 24.38-0.97 5.5-3.38 13.94-5.36 18.75-1.98 4.81-7.76 13.06-12.85 18.33-5.09 5.28-12.35 11.18-16.13 13.13-6.77 3.49-6.87 3.91-6.87 27.3v23.75c10.65-6.48 25-17.38 38.75-28.41 13.75-11.04 43.08-38.13 65.18-60.21 22.1-22.08 48.56-50.27 58.81-62.65 10.24-12.37 26.72-33.75 36.62-47.5 9.9-13.76 18.03-25.85 18.08-26.88 0.05-1.03-6.39-1.9-14.29-1.93l-14.38-0.06c-17.7 25.41-23.61 30.61-35.63 36.92-10.48 5.5-19.12 8.21-26.25 8.22-5.85 0.02-16.25-1.58-23.13-3.55-8.51-2.44-16.3-7.24-24.38-15.03-6.53-6.29-13.73-15.66-15.99-20.82-2.47-5.65-4.15-16.34-4.22-26.88-0.08-13.12 1.21-20.01 5.15-27.5 2.89-5.5 9.58-14.1 14.85-19.11 5.27-5 13.53-11.16 18.34-13.68 6.06-3.18 14.13-4.59 26.25-4.59 11.76 0 20.17 1.42 25.63 4.31 4.47 2.37 12.35 8.1 17.5 12.73 5.16 4.62 11.63 13.1 14.38 18.83l5 10.41 58.76-0.15c12.76-22.29 22.24-40.01 29.29-53.76 7.06-13.75 16.85-34.29 21.77-45.63 4.92-11.35 8.95-22.32 8.95-24.38 0-3.28-15.5-3.75-124.45-3.75h-124.45l-208.69 206.28 0.03 63.76c16.47 9.28 24.73 16.31 28.98 21.61 4.25 5.3 9.19 14.14 10.97 19.64 2.09 6.46 2.73 16.21 1.8 27.5-1.18 14.46-2.88 19.55-9.72 29.27-4.55 6.47-12.78 14.66-18.28 18.2-5.5 3.55-14.5 7.66-20 9.14-5.5 1.48-15.07 2.13-21.26 1.44-6.19-0.69-16.87-4.1-23.75-7.59-6.88-3.48-15.37-10.07-18.88-14.64-3.5-4.57-8.43-12.81-10.95-18.31-3.42-7.5-4.3-14.07-3.5-26.26 0.59-9 3.24-20.67 5.95-26.17 2.68-5.46 8.82-13.66 13.63-18.23 4.81-4.56 12.12-9.85 16.25-11.75 7.46-3.44 7.51-3.6 9.38-30.54 1.04-14.89 1.88-32.42 1.88-38.95l-0.01-11.87 228.34-231.28 285.01-2.5c13.39-38.76 21.09-65.2 25.75-83.76 4.66-18.57 11.26-50.64 14.66-71.26 3.4-20.63 7.5-54.39 9.11-75.01 1.76-22.6 2.31-56.39 1.38-85.01-0.86-26.13-2.73-57.64-4.18-70.01-1.44-12.38-3.16-24.48-3.81-26.88-1.12-4.13-13.37-4.38-212.46-4.38h-211.28l-277.63-276.28c-0.47-143.4-1.29-250.8-2.13-331.2l-1.53-146.16c-13.56-3.06-22.56-5-28.75-6.29-6.19-1.28-21.38-3.54-33.76-5.02-12.37-1.47-26.6-3.34-31.61-4.13l-9.12-1.46zm147.29-12.9v226.28l253.78 249.96c374.99 0.06 398.8-0.38 398.8-3.68 0-2.07-2.79-15.85-6.21-30.63-3.41-14.78-8.83-36.44-12.05-48.13l-5.84-21.26-292.19-1.5-226.19-226.02-0.02-130.02c-14.59-5.59-22.66-10.65-27.36-14.86-4.69-4.2-11.15-13.27-14.35-20.15-3.58-7.69-5.85-17.3-5.89-25-0.04-6.88 1.71-17.56 3.9-23.75 2.2-6.19 7.1-15.19 10.9-20.01 3.79-4.81 13-11.85 20.44-15.65 9.9-5.05 17.24-6.91 27.29-6.93 7.57-0.01 18.54 1.69 24.38 3.78 5.85 2.09 14.28 6.51 18.75 9.81 4.47 3.3 11.2 11.46 14.95 18.13 3.75 6.66 7.58 17.74 8.5 24.62 1.2 8.9 0.43 16.46-2.66 26.25-2.4 7.57-7.07 17.41-10.38 21.88-3.32 4.47-11.64 11.22-18.5 15l-12.46 6.88-0.08 112.51 203.78 203.77c233.53 0.01 261.27-0.66 261.22-3.12-0.03-1.72-6.45-17.75-14.26-35.63-7.8-17.87-20.01-43.75-27.11-57.5-7.11-13.76-19.43-35.7-27.38-48.76-7.95-13.06-19.01-30.5-24.57-38.75-5.57-8.26-16.37-23.45-24-33.77-7.64-10.32-22.27-28.89-32.52-41.26-10.25-12.37-33.88-38.08-52.51-57.13-18.62-19.05-47.93-46.37-65.12-60.7-17.19-14.33-32.1-26.03-33.13-25.99-1.03 0.04-1.87 17.51-1.87 38.82v38.76c12.59 6.78 21.03 13.53 26.87 19.37 7.77 7.77 11.72 14.5 14.68 25.01 2.8 9.96 3.51 18.21 2.29 26.88-0.97 6.87-3.79 16.44-6.26 21.25-2.47 4.81-9.41 13.33-15.41 18.93-6.01 5.6-15.42 11.66-20.92 13.47-6.14 2.02-16.29 2.82-26.26 2.08-8.94-0.67-19.62-2.96-23.75-5.1-4.13-2.13-11.44-7.68-16.25-12.33-4.82-4.65-10.92-12.92-13.57-18.38-2.66-5.46-5.34-15.55-5.96-22.42-0.69-7.65 0.43-17.36 2.88-25.01 2.21-6.87 7.81-17 12.44-22.5 4.64-5.5 13.67-12.81 20.07-16.25l11.64-6.25 0.23-105.02c-12.77-9.95-29.42-20.49-45.23-29.84-15.82-9.34-47.89-26.32-71.26-37.71-23.38-11.4-52.64-24.66-65.01-29.47-12.38-4.81-36.57-13.37-53.76-19.02-17.19-5.65-32.66-10.26-34.38-10.25-2.48 0.02-3.12 46.96-3.12 226.31zm113.68-73.97c-4.17 2.63-9.52 7.41-11.89 10.62-2.45 3.31-4.28 10.16-4.23 15.84q0.08 10 6.27 18.13c3.64 4.78 10.03 9.25 15.56 10.87 7.56 2.22 11.19 1.98 18.75-1.25 5.16-2.2 11.62-7.65 14.37-12.12 2.74-4.47 4.98-11.5 4.96-15.63-0.01-4.13-1.42-10.26-3.12-13.64-1.69-3.38-7.02-8.75-11.84-11.95-4.81-3.19-11.56-5.77-15-5.72-3.43 0.04-9.66 2.22-13.83 4.85zm159.61 118.34c-4.4 3.1-9.18 8.16-10.63 11.26-1.45 3.09-2.64 9.84-2.65 15-0.01 5.16 1.68 11.91 3.75 15 2.07 3.1 7.15 7.32 11.27 9.38 4.13 2.06 10.88 3.75 15 3.75 4.13 0 10.88-1.69 15.01-3.75 4.12-2.06 9.32-7.41 11.56-11.88q4.06-8.12 2.65-18.13c-1.02-7.22-3.87-12.25-10.31-18.12-6.72-6.14-11.2-8.13-18.28-8.14-5.71 0-12.5 2.19-17.37 5.63zm279.33 573.83c-4.33 3.78-8.93 10.53-10.21 15-1.46 5.05-1.46 11.21 0 16.26 1.28 4.46 5.79 11.22 10 15 6.24 5.6 10.02 6.87 20.41 6.87 11.29 0 13.73-1 21.25-8.75 6.8-6.99 8.5-10.76 8.5-18.75 0-5.5-1.12-12.81-2.5-16.25-1.37-3.44-6.15-8.5-10.62-11.24-4.69-2.89-12.53-5-18.55-5.01-7.79 0-12.39 1.72-18.28 6.87zm-77.51 165.02c-4.33 3.78-9.04 10.82-10.47 15.63-2.01 6.79-1.72 10.99 1.3 18.75 2.82 7.25 6.5 11.28 13.38 14.65 6.81 3.34 12.31 4.22 19.49 3.11 5.5-0.85 12.57-4.06 15.7-7.15 3.14-3.08 6.8-9.26 8.13-13.73 1.53-5.12 1.56-11.14 0.08-16.26-1.28-4.47-5.79-11.22-10-15-5.91-5.3-10.18-6.87-18.7-6.87-8.47 0-12.87 1.6-18.91 6.87zm-78.15 315.46c-7.37 6.59-8.16 8.66-8.16 21.21 0 12.08 0.98 14.92 7.5 21.6 5.46 5.6 10.55 8.05 18.75 9.02 9.12 1.07 12.91 0.2 20-4.61 5.37-3.64 9.96-9.53 11.88-15.22 1.89-5.61 2.38-12.42 1.25-17.19-1.03-4.35-5.25-11.12-9.38-15.05-6.31-6.02-9.57-7.14-20.58-7.1-10.89 0.04-14.46 1.27-21.26 7.34zm-136.26 132.52c-3.07 1.23-8.41 5.71-11.88 9.97-4.65 5.71-6.29 10.68-6.29 18.99 0 8.33 1.62 13.19 6.25 18.75 3.44 4.13 10.47 8.74 15.63 10.25 7.56 2.22 11.19 1.98 18.75-1.25 5.15-2.2 11.69-7.65 14.51-12.12 3.92-6.2 4.84-10.8 3.89-19.38-0.88-7.94-3.31-13.3-8.26-18.21-4.59-4.56-10.47-7.36-17.02-8.1-5.5-0.62-12.51-0.13-15.58 1.1zm-152.28 48.8c-4.32 1.87-9.67 6.05-11.9 9.28-2.35 3.41-4.04 10.87-4.03 17.76 0.02 10.23 1.23 13.09 8.77 20.63 7.08 7.08 10.66 8.75 18.75 8.75 5.5 0 13.38-1.69 17.5-3.75 4.13-2.06 9.19-7.13 11.26-11.25 2.06-4.13 3.73-10.6 3.71-14.38-0.02-3.78-1.43-9.64-3.13-13.02-1.69-3.37-7.02-8.75-11.84-11.94-4.81-3.2-11.56-5.73-15-5.64-3.44 0.09-9.78 1.7-14.09 3.56z"/>
			<path id="Path 3" fill-rule="evenodd" class="s2" d="m738.85 210.04c-6.88 1.2-20.94 5.07-31.26 8.6-10.31 3.54-27.19 11.38-37.5 17.43-10.32 6.05-27.19 18.16-37.51 26.91-10.31 8.75-25.61 24.29-34 34.54-8.38 10.25-20.19 26.11-26.25 35.26-6.05 9.14-20.01 30.41-31.01 47.27-12.01 18.39-25.5 35.57-33.75 42.98-7.57 6.79-19.38 15.07-26.26 18.39-6.87 3.33-18.69 7.76-26.25 9.86-7.56 2.09-32.32 4.89-55.01 6.23-22.69 1.33-46.32 3.37-52.51 4.53-6.18 1.17-16.31 3.52-22.5 5.23-6.19 1.72-20.25 7.75-31.25 13.42-14.99 7.72-25.33 15.65-41.26 31.64-11.69 11.74-27.59 30.91-35.33 42.6-7.74 11.69-21.11 35.32-29.71 52.51-8.6 17.19-20.4 43.63-26.21 58.76-5.81 15.12-12.91 35.38-15.78 45-2.86 9.63-7.43 25.38-10.16 35.01-2.73 9.62-7.79 32.13-11.24 50-3.45 17.88-7.48 40.38-8.96 50.01-1.47 9.63-3.78 30.44-5.13 46.26-1.35 15.81-3.15 47.31-4.01 70-1.1 29.12-0.33 56.34 2.62 92.52 2.31 28.19 6.36 64.19 9.02 80.01 2.65 15.81 6.6 36.63 8.76 46.25 2.16 9.63 7.39 30.44 11.61 46.26 4.22 15.81 12.02 41.41 17.34 56.88 5.32 15.47 14.76 40.22 20.98 55.01 6.22 14.78 20.43 44.88 31.58 66.88 11.14 22 25.74 48.45 32.43 58.76 6.7 10.31 13.26 20.44 14.6 22.5 1.33 2.06 9.97 14.44 19.19 27.51 9.22 13.06 24.13 32.75 33.14 43.75 9.01 11 25.41 30 36.45 42.22 11.04 12.22 33.02 34.04 48.83 48.5 15.82 14.45 40.01 35.18 53.76 46.06 13.75 10.87 26.71 21.12 28.79 22.76 2.08 1.64 15.02 10.47 28.75 19.63 13.73 9.16 32.84 21.43 42.47 27.27 9.63 5.84 34.38 19.35 55.01 30.02 20.63 10.68 51.57 24.97 68.76 31.78 17.19 6.8 40.25 15.27 51.25 18.81 11 3.55 31.82 9.76 46.26 13.8 14.44 4.04 31.88 8.58 38.75 10.1 6.88 1.51 22.63 4.38 35.01 6.37 12.38 1.99 29.68 4.54 38.45 5.67l15.95 2.05-2.19-42.5c-54.51-81.39-83.02-125.83-98.52-151.27-15.5-25.44-39.1-67.64-52.44-93.76-13.34-26.13-30.76-62.7-38.71-81.26-7.96-18.57-19.28-47.82-25.17-65.01-5.89-17.19-13.7-41.95-17.37-55.01-3.67-13.06-9.29-36.13-12.5-51.26-3.21-15.12-7.83-41.56-10.26-58.75-3.15-22.28-4.43-47.42-4.47-87.52-0.04-42.14 1.06-63.15 4.39-83.76 2.45-15.12 6.66-37.63 9.35-50 2.7-12.38 7.79-32.07 11.32-43.76 3.53-11.69 10.9-33.07 16.39-47.5 5.48-14.44 18.73-45.39 29.44-68.76 10.71-23.38 23.16-50.95 27.66-61.26 4.5-10.32 11.83-29.44 16.29-42.51 4.47-13.06 10.11-31.06 12.55-40 3.18-11.68 4.45-25.76 4.53-50.01 0.08-28.42-0.82-36.72-5.7-52.51-3.19-10.31-8.9-24.94-12.71-32.5-3.8-7.56-13.61-22.19-21.79-32.5-8.19-10.32-20.42-23.21-27.2-28.66-6.77-5.45-21.88-18.28-33.56-28.52-11.69-10.24-24.44-23.22-28.33-28.85-3.89-5.63-9.42-15.3-12.3-21.49-3.41-7.34-5.6-18.2-6.33-31.25-0.94-16.97-0.08-23.04 5.63-40.01 3.7-11 11.56-27.31 17.46-36.25 5.9-8.94 16.22-21.17 22.92-27.17 6.71-6 18.39-15.13 25.95-20.28 7.56-5.14 18.25-11.64 23.75-14.44 5.5-2.8 17.32-7.49 26.26-10.43 8.93-2.94 26.94-6.47 40-7.84 13.06-1.37 24.67-3.31 25.8-4.3 1.12-0.99 1.33-9.68 0.46-19.3-0.87-9.63-5.17-28.2-9.55-41.26l-7.96-23.75c-29.06-0.59-43.13 0.21-50 1.4z"/>
			<path id="Path 4" fill-rule="evenodd" class="s3" d="m966.29 98c-0.66 1.72-0.91 155.58-0.56 341.92l0.64 338.79c33.9 1.05 43.52 0.24 45.01-1.34 1.65-1.76 2.23-117.25 1.7-339.45-0.61-254.01-1.53-337.59-3.75-340.03-1.95-2.14-9.54-3.2-22.39-3.13-13.15 0.08-19.83 1.12-20.65 3.24zm-82.67 894.62c-50.75 50.96-93.09 94-94.1 95.64-1.02 1.65-1.9 6.93-1.97 11.74-0.07 5.05 2.03 11.66 4.97 15.63 2.97 4.02 8.46 7.51 13.21 8.4 4.63 0.87 10.81 0.19 14.38-1.59 3.43-1.71 35.5-32.86 71.25-69.21 38.63-39.28 66.54-65.76 68.76-65.26 3.31 0.74 3.9 53.56 5 450.86l1.25 450.02 46.26 1.25c0.71-12.59 0.99-214.82 1.08-457.52 0.16-418.26 0.4-441.3 4.55-441.93 2.49-0.38 10.98 5.52 19.74 13.71 8.46 7.91 27.31 26.64 41.89 41.61 14.57 14.98 32.61 32.98 40.07 40.01 7.46 7.02 17.58 17.1 22.5 22.4 4.92 5.3 12.03 11.2 15.81 13.13 3.79 1.92 9.81 3.5 13.38 3.5 4.14 0 9.58-3.18 15-8.76 5.39-5.54 8.54-11.27 8.59-15.62 0.05-3.78-2.48-10.21-5.63-14.28-3.14-4.07-20.7-22.07-39.02-40-18.32-17.94-54.62-53.99-80.67-80.12-26.06-26.12-48.2-48.64-49.21-50.04-1-1.4-5.49-5.62-9.95-9.38-6.64-5.58-10.58-6.83-21.51-6.83h-13.37z"/>
			<path id="Path 5" fill-rule="evenodd" class="s4" d="m310.82 594.15c-3.01 0.57-9.37 5.2-14.14 10.29-4.77 5.09-13.61 18.25-19.66 29.25-6.04 11-15.58 30.69-21.19 43.76-5.62 13.06-14.33 36.69-19.36 52.5-5.04 15.82-12.43 45.07-16.43 65.01-3.99 19.94-8.67 52.01-10.39 71.26-2.48 27.65-2.5 42.36-0.12 70.01 1.66 19.25 4.56 40.07 6.44 46.26 1.89 6.18 4.41 11.56 5.62 11.94 1.2 0.38 5.97-18.75 10.6-42.5 4.63-23.76 12.13-59.52 16.68-79.46 4.54-19.94 12.38-49.75 17.41-66.26 5.04-16.5 13.07-39.56 17.86-51.25 4.79-11.69 15.28-34.19 23.31-50.01 8.03-15.81 21.45-40 29.84-53.76 9.52-15.61 15.26-27.81 15.31-32.5 0.05-4.6-2.12-9.62-5.62-12.99-3.13-3.01-9.91-7.23-15.06-9.37-5.16-2.14-10.78-3.74-12.5-3.55-1.72 0.18-5.59 0.8-8.6 1.37z"/>
		</g>
	</g>
</svg>